<svg xmlns="http://www.w3.org/2000/svg" viewBox="0 0 48 48">
    <path fill="#4CAF50" d="M23.837 47.345c-.698-.196-1.046-.294-1.569-.916-.916-1.09-1.832-2.473-2.473-3.758-.916-1.832-1.569-3.857-2.012-5.884-.196-.916-.196-1.09-.196-2.18 0-.916.196-1.832.392-2.747.392-1.569 1.09-3.139 2.18-4.512.698-.916 2.012-2.18 2.18-2.18.196 0 .196.196.196.392s-.196.392-.392.698c-1.569 2.18-2.473 4.708-2.473 7.455 0 2.18.392 4.12 1.569 6.108.698 1.09 1.569 2.18 2.473 3.139.392.392.392.392.392.698-.196.392-.196.392-.294.698z"/>
    <path fill="#4CAF50" d="M22.465 46.233c0-.196 0-.392.196-.392.196-.196.392-.196.392 0 0 .196 0 .392-.196.392-.196.196-.392.196-.392 0zm1.09-1.09c0-.196 0-.392.196-.392.196-.196.392-.196.392 0 0 .196 0 .392-.196.392-.196.196-.392.196-.392 0zm.916-1.09c0-.196.196-.392.392-.392s.392.196.392.392-.196.392-.392.392-.392-.196-.392-.392zm.916-1.09c0-.196.196-.392.392-.392s.392.196.392.392-.196.392-.392.392-.392-.196-.392-.392z"/>
    <path fill="#4CAF50" d="M24.163.655c.196.196 1.569 2.18 1.569 2.18.698 1.09 1.09 1.832 1.569 2.922.698 1.569 1.09 3.139 1.387 4.904.196 1.09.196 3.661 0 4.708-.392 2.18-1.09 4.12-2.18 5.884-.392.698-1.387 1.832-1.387 1.832-.196 0-.196-2.012-.196-2.18 0-.196.196-.392.392-.698.916-1.387 1.569-2.922 1.832-4.512.196-1.09.196-3.563 0-4.512-.392-2.18-1.387-4.316-2.677-6.108-.698-.916-1.569-1.832-1.569-1.832-.196-.196-.196-2.18 0-2.18.196-.196.196-.392.294-.392z"/>
</svg>
