<svg width="100%" height="100%" viewBox="0 0 204 26" fill="none" xmlns="http://www.w3.org/2000/svg">
<path d="M25.822 14.434C23.9882 14.434 22.9108 14.7816 21.9137 15.7503C21.1745 16.4683 20.7905 17.2604 20.6587 18.343C20.653 18.3943 20.6014 18.3943 20.6014 18.343V11.8698C20.6014 8.10324 19.7246 5.63019 17.5012 3.47055C15.1459 1.17984 12.613 0.36499 8.28067 0.36499H0V13.2545C0 17.021 0.876777 19.4941 3.10024 21.6537C5.4555 23.9444 7.97122 24.765 12.3093 24.765H15.7533C15.8049 24.765 15.8049 24.7251 15.7533 24.7194C14.7161 24.594 13.7018 24.1895 12.8651 23.3803C11.9253 22.4686 11.5528 21.4315 11.5528 19.8303V14.4397H15.2032C17.037 14.4397 18.1143 14.7873 19.1115 15.756C20.0513 16.6677 20.4238 17.7162 20.4238 19.3117V24.7593H24.2575C26.0913 24.7593 27.1686 24.4117 28.1658 23.443C29.1056 22.5313 29.4781 21.4942 29.4781 19.893V14.434H25.8277H25.822Z" fill="#4C5F7F"/>
<path d="M33.4635 21.3166H32.1607V20.9426H35.2241V21.3166H33.9213V24.6262H33.4694V21.3166H33.4635Z" fill="#4C5F7F"/>
<path d="M35.9577 20.9426H36.4095L37.8767 23.5835L39.3203 20.9426H39.7722L39.96 24.6262H39.5257L39.3849 21.6L38.0703 24.0028H37.6713L36.3509 21.6396L36.2159 24.6262H35.7816L35.9694 20.9426H35.9577Z" fill="#4C5F7F"/>
<path d="M101.02 15.71V25.03H101.77C102.6 25.03 103.09 24.89 103.47 24.49C103.83 24.11 103.96 23.67 103.96 22.87V15.87C103.96 12.26 104.57 10.47 106.4 8.64001C108.06 6.97001 110.26 6.20001 112.77 6.20001V3.35001C109.33 3.35001 106.35 4.58001 104.27 6.66001C101.93 9.01001 101.02 11.43 101.02 15.72" fill="#4C5F7F"/>
<path d="M186.69 13.93L194.94 3.57999H192.5C191.57 3.57999 191.01 3.80999 190.39 4.56999L184.82 11.59L179.25 4.56999C178.64 3.80999 178.07 3.57999 177.14 3.57999H174.62L182.91 13.98L174.11 25.02H176.54C177.47 25.02 178.03 24.8 178.65 24.03L184.77 16.32L190.89 24.03C191.5 24.79 192.07 25.02 192.99 25.02H195.51L186.67 13.93H186.69Z" fill="#4C5F7F"/>
<path d="M141.14 4.07C140.78 4.45 140.65 4.89 140.65 5.69V16.06C140.65 18.04 140.08 19.47 138.96 20.59C137.75 21.8 136.06 22.29 134.39 22.29H132.76V3.73H129.86V22.3H128.23C126.56 22.3 124.86 21.82 123.66 20.6C122.54 19.47 121.97 18.05 121.97 16.07V5.69C121.97 4.89 121.84 4.44 121.48 4.07C121.1 3.67 120.61 3.53 119.78 3.53H119.03V16.16C119.03 18.69 119.7 20.62 121.13 22.22C122.94 24.23 125.43 25.09 128.64 25.09H133.98C137.19 25.09 139.69 24.23 141.49 22.22C142.93 20.62 143.59 18.69 143.59 16.16V3.53H142.83C142.01 3.53 141.51 3.67 141.13 4.07" fill="#4C5F7F"/>
<path d="M153.38 6.32001C151.75 8.04001 150.99 10.21 150.99 13.03V14.51C150.99 17.9 151.85 20.21 153.74 22.11C155.8 24.2 158.29 24.98 161.53 24.98H166.5V24.57C166.5 23.26 165.43 22.15 164.11 22.15H161.42C159.17 22.15 157.38 21.56 155.93 20.12C154.73 18.93 153.93 17.15 153.93 15.57H159.65C163.27 15.57 165.33 14.81 167.2 12.83C168.83 11.11 169.59 9.00001 169.59 6.27001V3.57001H160.94C157.32 3.57001 155.26 4.33001 153.39 6.31001M164.95 11.01C163.8 12.18 162.42 12.75 160.21 12.75H153.93C153.93 10.78 154.46 9.32001 155.64 8.13001C156.79 6.96001 158.17 6.39001 160.38 6.39001H166.66C166.66 8.36001 166.13 9.82001 164.95 11.01Z" fill="#4C5F7F"/>
<path d="M83.58 3.34C77.54 3.34 72.64 8.24 72.64 14.28C72.64 20.32 77.55 25.22 83.58 25.22C89.61 25.22 94.52 20.32 94.52 14.28C94.52 8.24 89.62 3.34 83.58 3.34ZM83.58 22.39C79.17 22.39 75.58 18.76 75.58 14.28C75.58 9.8 79.17 6.17 83.58 6.17C87.99 6.17 91.58 9.8 91.58 14.28C91.58 18.76 88 22.39 83.58 22.39Z" fill="#4C5F7F"/>
<path d="M56.71 3.34C56.64 3.34 56.57 3.34 56.5 3.35H47.23L47.26 25.02H48.01C48.84 25.02 49.33 24.88 49.71 24.48C50.07 24.1 50.2 23.66 50.2 22.86V6.17H56.48C56.55 6.17 56.62 6.17 56.7 6.17C58.47 6.17 60.1 6.85 61.28 8.03C62.6 9.35 63.2 11.01 63.2 13.37V22.86C63.2 23.66 63.33 24.11 63.69 24.48C64.07 24.88 64.56 25.02 65.39 25.02H66.14V13.21C66.14 10.06 65.26 7.86 63.42 6.06C61.7 4.38 59.3 3.34 56.7 3.34" fill="#4C5F7F"/>
<path d="M202.563 19.7239C202.253 19.1921 201.832 18.7772 201.3 18.4675C200.768 18.1578 200.172 18 199.506 18C198.84 18 198.256 18.1578 197.73 18.4675C197.198 18.7772 196.777 19.198 196.467 19.7239C196.158 20.2557 196 20.8517 196 21.5179C196 22.1841 196.158 22.7685 196.467 23.3003C196.777 23.8379 197.198 24.2586 197.73 24.5683C198.262 24.8781 198.852 25.0358 199.506 25.0358C200.161 25.0358 200.768 24.8839 201.3 24.5683C201.832 24.2586 202.253 23.8379 202.563 23.3003C202.872 22.7626 203.03 22.1724 203.03 21.5179C203.03 20.8634 202.872 20.2557 202.563 19.7239ZM202.13 23.0724C201.861 23.534 201.493 23.9022 201.037 24.1768C200.581 24.4515 200.067 24.5917 199.506 24.5917C198.945 24.5917 198.431 24.4515 197.975 24.1768C197.519 23.9022 197.151 23.534 196.882 23.0724C196.614 22.6107 196.473 22.0906 196.473 21.5179C196.473 20.9452 196.608 20.4251 196.882 19.9635C197.151 19.5018 197.519 19.1337 197.975 18.859C198.431 18.5844 198.945 18.4441 199.506 18.4441C200.067 18.4441 200.581 18.5844 201.037 18.859C201.493 19.1337 201.861 19.5018 202.13 19.9635C202.399 20.4251 202.539 20.9452 202.539 21.5179C202.539 22.0906 202.405 22.6107 202.13 23.0724Z" fill="#4C5F7F"/>
<path d="M200.02 21.6932C200.213 21.6407 200.371 21.5296 200.494 21.3602C200.611 21.1907 200.675 20.992 200.675 20.7699C200.675 20.4544 200.57 20.2148 200.365 20.0453C200.161 19.8758 199.88 19.794 199.535 19.794H198.413V23.0724H198.852V21.7751H199.6L200.465 23.0724H200.95L200.02 21.6932ZM199.565 21.3835H198.846V20.168H199.565C199.758 20.168 199.915 20.2148 200.038 20.3141C200.155 20.4135 200.219 20.5713 200.219 20.7875C200.219 21.1848 200.003 21.3894 199.571 21.3894L199.565 21.3835Z" fill="#4C5F7F"/>
</svg>
