<svg width="138" height="40" viewBox="0 0 138 40" fill="none" xmlns="http://www.w3.org/2000/svg">
<path d="M132.555 33.2309C132.255 32.9341 132.018 32.5784 131.86 32.1856C131.701 31.7928 131.624 31.3713 131.634 30.9473C131.625 30.5264 131.702 30.1081 131.86 29.7188C132.019 29.3295 132.255 28.9774 132.555 28.6848C133.168 28.0991 133.98 27.7728 134.824 27.7728C135.668 27.7728 136.48 28.0991 137.093 28.6848C137.389 28.9795 137.622 29.3322 137.778 29.7213C137.934 30.1104 138.009 30.5277 137.999 30.9473C137.994 31.5822 137.804 32.2015 137.453 32.7282C137.102 33.2548 136.605 33.6654 136.025 33.9089C135.444 34.1523 134.806 34.2178 134.189 34.0973C133.572 33.9767 133.004 33.6754 132.555 33.2309ZM136.624 32.7747C136.862 32.5363 137.049 32.2513 137.175 31.937C137.3 31.6228 137.36 31.2859 137.352 30.9473C137.36 30.6117 137.3 30.278 137.175 29.9672C137.049 29.6563 136.862 29.375 136.624 29.1409C136.136 28.6767 135.491 28.4181 134.82 28.4181C134.15 28.4181 133.505 28.6767 133.017 29.1409C132.777 29.3741 132.588 29.6551 132.462 29.9661C132.336 30.2771 132.275 30.6112 132.283 30.9473C132.287 31.4536 132.438 31.9476 132.718 32.3678C132.997 32.7881 133.393 33.116 133.856 33.3107C134.318 33.5055 134.827 33.5585 135.319 33.4632C135.812 33.3679 136.265 33.1285 136.624 32.7747ZM133.685 32.1418C133.452 31.9128 133.292 31.6184 133.226 31.2966C133.161 30.9748 133.192 30.6406 133.317 30.3371C133.441 30.0336 133.653 29.775 133.925 29.5946C134.197 29.4142 134.516 29.3205 134.841 29.3255C135.201 29.3133 135.556 29.4217 135.848 29.6341C136.098 29.8121 136.282 30.0691 136.37 30.3645L135.705 30.528C135.656 30.3641 135.551 30.2236 135.407 30.1324C135.244 30.0173 135.048 29.9581 134.849 29.9637C134.721 29.9585 134.593 29.9812 134.475 30.0304C134.356 30.0795 134.25 30.1539 134.163 30.2485C134.074 30.3448 134.006 30.4577 133.961 30.5808C133.916 30.7039 133.896 30.8347 133.902 30.9657C133.897 31.0951 133.917 31.2241 133.962 31.3454C134.007 31.4667 134.075 31.5779 134.163 31.6724C134.249 31.7686 134.355 31.8445 134.474 31.8951C134.592 31.9456 134.72 31.9695 134.849 31.9651C135.049 31.9712 135.246 31.914 135.413 31.8016C135.556 31.7106 135.66 31.5685 135.705 31.4035L136.37 31.5828C136.279 31.8745 136.096 32.1282 135.848 32.3053C135.523 32.5332 135.13 32.6414 134.735 32.6116C134.341 32.5818 133.968 32.416 133.68 32.1418H133.685Z" fill="#130049"/>
<path d="M52.406 33.4313C51.5159 33.8029 50.5634 33.9981 49.6004 34.0062C48.2668 34.0062 47.2672 33.6185 46.5939 32.8565C45.9205 32.0944 45.5864 31.029 45.5864 29.6684V24.4525H43.5664V21.6731H45.5864V17.7361H48.7418V21.6731H52.2572V24.4525H48.7418V29.6684C48.7418 30.6889 49.2272 31.2031 50.2137 31.2031C50.7095 31.2055 51.1988 31.0889 51.6413 30.8629L52.406 33.4313Z" fill="#130049"/>
<path d="M54.384 32.3185C53.2358 31.0837 52.6183 29.4396 52.6667 27.746C52.6667 25.9054 53.2391 24.3734 54.384 23.1498C54.9208 22.5627 55.5748 22.0972 56.3026 21.784C57.0305 21.4709 57.8158 21.3171 58.6068 21.333C60.2536 21.333 61.5402 21.9315 62.4694 23.1393V21.6731H65.6351V33.8031H62.4746V32.3159C61.5455 33.5342 60.2579 34.1433 58.612 34.1433C57.819 34.1631 57.031 34.0105 56.3015 33.6956C55.572 33.3808 54.9181 32.9111 54.384 32.3185ZM61.5872 30.3012C61.9154 29.9609 62.172 29.557 62.3416 29.1137C62.5111 28.6705 62.5901 28.1972 62.5738 27.7223C62.5888 27.2527 62.5091 26.7849 62.3395 26.3475C62.1699 25.91 61.9139 25.512 61.5872 25.1776C61.2707 24.8509 60.8914 24.593 60.4727 24.4198C60.054 24.2466 59.6046 24.1617 59.1522 24.1703C58.7023 24.1558 58.2544 24.237 57.8376 24.4088C57.4208 24.5805 57.0444 24.8388 56.7329 25.1671C56.4129 25.5069 56.1638 25.9082 56.0001 26.3471C55.8365 26.786 55.7617 27.2536 55.7803 27.7223C55.7609 28.1962 55.8351 28.6693 55.9987 29.1139C56.1622 29.5585 56.4118 29.9657 56.7329 30.3118C57.0439 30.6431 57.4206 30.9043 57.8384 31.0783C58.2562 31.2524 58.7057 31.3353 59.1574 31.3217C59.6093 31.3296 60.058 31.243 60.4752 31.0674C60.8924 30.8917 61.2693 30.6309 61.582 30.3012H61.5872Z" fill="#130049"/>
<path d="M79.3664 23.163C80.4912 24.3839 81.0602 25.9186 81.0602 27.7592C81.107 29.4501 80.495 31.092 79.3559 32.3317C78.8241 32.9244 78.1733 33.3956 77.4469 33.7139C76.7205 34.0322 75.9353 34.1903 75.1436 34.1776C73.5098 34.1776 72.211 33.5685 71.2471 32.3502V38.8793H68.1152V21.6731H71.2471V23.1393C72.1971 21.9316 73.4968 21.333 75.1436 21.333C75.9355 21.3188 76.7214 21.4746 77.4494 21.7901C78.1773 22.1056 78.8307 22.5735 79.3664 23.163ZM77.0175 30.325C77.3385 29.9789 77.5881 29.5717 77.7517 29.1271C77.9153 28.6825 77.9895 28.2094 77.9701 27.7355C77.9886 27.2669 77.9138 26.7992 77.7502 26.3603C77.5866 25.9214 77.3374 25.5201 77.0175 25.1803C76.7053 24.8514 76.3281 24.5926 75.9103 24.4209C75.4926 24.2491 75.0437 24.1683 74.5929 24.1835C74.1405 24.1746 73.691 24.2594 73.2722 24.4326C72.8535 24.6058 72.4742 24.8639 72.1579 25.1908C71.8312 25.5252 71.5752 25.9232 71.4056 26.3607C71.236 26.7981 71.1563 27.2659 71.1714 27.7355C71.1551 28.2104 71.234 28.6837 71.4036 29.1269C71.5731 29.5702 71.8297 29.9741 72.1579 30.3145C72.4718 30.6456 72.8503 30.9073 73.2694 31.0829C73.6886 31.2586 74.1392 31.3444 74.5929 31.335C75.0465 31.3476 75.4976 31.263 75.9164 31.0866C76.3352 30.9102 76.7123 30.6462 77.0227 30.3118L77.0175 30.325Z" fill="#130049"/>
<path d="M83.935 32.3185C82.7614 31.0896 82.1055 29.4485 82.1055 27.7408C82.1055 26.033 82.7614 24.3919 83.935 23.163C85.153 21.9447 86.6885 21.3347 88.5415 21.333C89.3899 21.3076 90.2345 21.4568 91.0241 21.7714C91.8138 22.086 92.5318 22.5594 93.1348 23.163C94.3037 24.3944 94.9563 26.0346 94.9563 27.7408C94.9563 29.4469 94.3037 31.0871 93.1348 32.3185C91.9169 33.5491 90.3858 34.1644 88.5415 34.1644C86.6972 34.1644 85.1617 33.5491 83.935 32.3185ZM90.9817 30.2775C91.5793 29.5723 91.9078 28.6745 91.9078 27.746C91.9078 26.8176 91.5793 25.9198 90.9817 25.2146C90.3284 24.5755 89.4547 24.2181 88.5454 24.2181C87.6361 24.2181 86.7624 24.5755 86.1091 25.2146C85.5033 25.9159 85.1695 26.8152 85.1695 27.746C85.1695 28.6769 85.5033 29.5762 86.1091 30.2775C86.7624 30.9166 87.6361 31.2739 88.5454 31.2739C89.4547 31.2739 90.3284 30.9166 90.9817 30.2775Z" fill="#130049"/>
<path d="M108.356 21.6731V33.8031H105.224V32.2684C104.284 33.5236 103.008 34.1433 101.372 34.1433C99.8162 34.1433 98.6365 33.6633 97.8327 32.7035C97.0289 31.7436 96.627 30.4252 96.627 28.7481V21.6731H99.7588V28.1574C99.7588 29.1032 99.9798 29.845 100.422 30.383C100.85 30.9341 101.487 31.2031 102.322 31.2031C102.725 31.22 103.127 31.1422 103.496 30.9756C103.864 30.8091 104.19 30.5583 104.446 30.2432C104.968 29.5972 105.229 28.7428 105.229 27.6511V21.6731H108.356Z" fill="#130049"/>
<path d="M118.472 33.4313C117.582 33.8029 116.63 33.9981 115.667 34.0062C114.331 34.0062 113.334 33.6185 112.66 32.8565C111.987 32.0944 111.653 31.029 111.653 29.6684V24.4525H109.633V21.6731H111.653V17.7361H114.808V21.6731H118.326V24.4525H114.811V29.6684C114.811 30.6889 115.296 31.2031 116.283 31.2031C116.779 31.2055 117.268 31.0889 117.71 30.8629L118.472 33.4313Z" fill="#130049"/>
<path d="M120.936 33.0437C119.855 32.3053 119.148 31.4272 118.848 30.4067L121.679 29.5735C121.891 30.1743 122.295 30.6866 122.828 31.0291C123.417 31.4165 124.109 31.6125 124.811 31.5907C125.315 31.6147 125.816 31.4882 126.249 31.2268C126.412 31.1409 126.549 31.0133 126.647 30.8568C126.745 30.7003 126.8 30.5206 126.808 30.3355C126.808 29.8082 126.367 29.41 125.471 29.141L122.41 28.226C120.427 27.6511 119.44 26.5621 119.44 24.9799C119.44 23.9726 119.915 23.1155 120.855 22.4009C121.843 21.672 123.043 21.2962 124.266 21.333C125.429 21.3089 126.578 21.5964 127.596 22.1662C128.486 22.6703 129.187 23.4573 129.59 24.405L126.808 25.2251C126.286 24.2758 125.427 23.8064 124.242 23.8064C123.817 23.7916 123.397 23.9064 123.036 24.1361C122.891 24.2081 122.766 24.3172 122.674 24.4527C122.583 24.5881 122.528 24.7452 122.515 24.9087C122.515 25.3543 122.851 25.6708 123.514 25.8712L126.505 26.7387C127.409 26.9709 128.258 27.3853 129 27.957C129.592 28.4607 129.882 29.199 129.882 30.1958C129.886 30.7522 129.756 31.3013 129.504 31.7956C129.251 32.29 128.883 32.7147 128.431 33.0331C127.458 33.782 126.205 34.1565 124.686 34.1565C123.352 34.1827 122.043 33.7942 120.936 33.0437Z" fill="#130049"/>
<path d="M9.68781 40H6.60817V35.9127L3.492 28.669V19.5346L0 11.3943L0.56634 9.94397L1.39106 9.5827L2.82387 10.1576L6.57164 18.8885V28.0229L9.68781 35.2667V40Z" fill="#130049"/>
<path d="M15.4555 0H14.5577L13.4668 1.10225V14.3213L15.0066 17.9524L16.5464 17.1745V1.10225L15.4555 0Z" fill="#130049"/>
<path d="M22.7782 24.4182V15.5897L25.0227 4.54087L24.1719 3.24085L23.295 3.0589L22.0057 3.91591L19.7012 15.2759V21.5677L21.241 25.1961L22.7782 24.4182Z" fill="#130049"/>
<path d="M30.1878 21.7311L27.1656 24.2125L24.7045 29.497L17.8301 34.1275V40H20.9097V35.7914L27.1264 31.6039L29.6528 26.1797L33.3979 23.105V21.7311H30.1878Z" fill="#130049"/>
<path d="M7.33695 3.98181L6.46787 4.20595L5.67969 5.54816L8.26345 15.769L10.6123 18.8964L11.9407 17.7494L8.66276 4.77817L7.33695 3.98181Z" fill="#130049"/>
</svg>
